<svg width="874" height="770" viewBox="0 0 874 770" fill="none" xmlns="http://www.w3.org/2000/svg">
<mask id="mask0" mask-type="alpha" maskUnits="userSpaceOnUse" x="0" y="0" width="874" height="770">
<rect width="874" height="770" fill="#F9E6C1"/>
</mask>
<g mask="url(#mask0)">
<rect width="874" height="587" fill="url(#paint0_linear)"/>
<rect width="874" height="587" fill="url(#paint1_linear)"/>
<rect width="874" height="587" fill="url(#paint2_linear)"/>
<path d="M612 383L601 564.5L900 612L909 422.5L852 351.5L859.5 327.5L847 292L833 273.5L803.5 244.5L767.5 280L773.5 298L781.5 320.5L759 334.5L776 318L759 282.5L728.5 261.5L721.5 273.5H706.5L691 298H683L673 381L661.5 334.5H645.5L612 383Z" fill="url(#paint3_linear)"/>
<mask id="mask1" mask-type="alpha" maskUnits="userSpaceOnUse" x="601" y="244" width="308" height="368">
<path d="M612 383L601 564.5L900 612L909 422.5L852 351.5L859.5 327.5L847 292L833 273.5L803.5 244.5L767.5 280L773.5 298L781.5 320.5L759 334.5L776 318L759 282.5L728.5 261.5L721.5 273.5H706.5L691 298H683L673 381L661.5 334.5H645.5L612 383Z" fill="url(#paint4_linear)"/>
</mask>
<g mask="url(#mask1)">
<path d="M804 283V244.5V212L792 184.5L779.5 172L587.5 254.5C554.833 308 488.3 418 483.5 430C477.5 445 568 588 573 589.5C577 590.7 734.334 571.667 812.5 562L792 465.5V424L779.5 400L812.5 352L804 330L818.5 293.5L804 283Z" fill="url(#paint5_linear)" fill-opacity="0.4"/>
<path d="M729.786 319V280.5V248L717.786 220.5L705.286 208L513.285 290.5C480.619 344 414.086 454 409.286 466C403.286 481 493.786 624 498.786 625.5C502.786 626.7 660.119 607.667 738.286 598L717.786 501.5V460L705.286 436L738.286 388L729.786 366L744.286 329.5L729.786 319Z" fill="url(#paint6_linear)" fill-opacity="0.3"/>
<path d="M670.786 338V299.5V267L658.786 239.5L646.286 227L454.285 309.5C421.619 363 355.086 473 350.286 485C344.286 500 434.786 643 439.786 644.5C443.786 645.7 601.119 626.667 679.286 617L658.786 520.5V479L646.286 455L679.286 407L670.786 385L685.286 348.5L670.786 338Z" fill="url(#paint7_linear)" fill-opacity="0.3"/>
<path d="M697.5 326L701 286.5L710 278H718.5L725.5 273L734 284.5L732 269.5L737.5 273L734 303.5L729 324.5V303.5L724 298L729 287.5L724 276.5L718.5 287.5L724 283.5L718.5 307.5L724 303.5V326C724 327.2 721.667 317.5 720.5 312.5L718.5 328.5L713 282L715.5 329.5L711 287.5L706.5 282L703 302.5L708.5 288.5C709.5 302.167 711.4 329.1 711 327.5C710.6 325.9 707.833 312.5 706.5 306L703 324.5V306L697.5 326Z" fill="white" fill-opacity="0.3"/>
</g>
<path d="M4.68622 390.084L-48.7637 563.884L230.63 680.488L284.021 498.443L245.352 416.013L258.295 394.455L254.51 357.009L245.263 335.732L223.425 300.598L180.075 326.618L181.666 345.525L184.14 369.276L158.975 377.581L179.383 365.551L171.225 327.045L146.531 299.451L136.901 309.464L122.323 305.93L101.488 326.089L93.7129 324.204L64.4404 402.512L64.219 354.611L48.6694 350.842L4.68622 390.084Z" fill="url(#paint8_linear)"/>
<mask id="mask2" mask-type="alpha" maskUnits="userSpaceOnUse" x="-60" y="252" width="386" height="431">
<path d="M4.68622 390.084L-48.7637 563.884L230.63 680.488L284.021 498.443L245.352 416.013L258.295 394.455L254.51 357.009L245.263 335.732L223.425 300.598L180.075 326.618L181.666 345.525L184.14 369.276L158.975 377.581L179.383 365.551L171.225 327.045L146.531 299.451L136.901 309.464L122.323 305.93L101.488 326.089L93.7129 324.204L64.4404 402.512L64.219 354.611L48.6694 350.842L4.68622 390.084Z" fill="url(#paint9_linear)"/>
</mask>
<g mask="url(#mask2)">
<path d="M214.842 338.132L223.912 300.716L231.569 269.131L226.385 239.578L217.182 224.485L11.15 259.429C-33.2011 303.728 -123.776 394.957 -131.268 405.488C-140.633 418.653 -86.3699 578.948 -81.864 581.584C-78.2593 583.693 79.1296 602.261 157.373 611.282L160.185 512.669L169.962 472.337L163.468 446.067L206.847 407.193L203.769 383.81L226.46 351.753L214.842 338.132Z" fill="url(#paint10_linear)" fill-opacity="0.4"/>
<path d="M134.235 355.635L143.305 318.219L150.962 286.633L145.778 257.08L136.575 241.987L-69.4574 276.932C-113.809 321.23 -204.384 412.459 -211.876 422.991C-221.241 436.155 -166.977 596.451 -162.471 599.087C-158.867 601.195 -1.47785 619.764 76.766 628.784L79.5774 530.171L89.3544 489.839L82.8604 463.57L126.24 424.695L123.162 401.312L145.853 369.255L134.235 355.635Z" fill="url(#paint11_linear)" fill-opacity="0.3"/>
<path d="M72.4183 360.2L81.4885 322.784L89.1452 291.199L83.9617 261.646L74.7584 246.553L-131.274 281.497C-175.625 325.796 -266.2 417.025 -273.692 427.556C-283.057 440.72 -228.794 601.016 -224.288 603.652C-220.683 605.761 -63.2943 624.329 14.9496 633.35L17.761 534.736L27.538 494.404L21.044 468.135L64.4234 429.261L61.3456 405.877L84.0365 373.821L72.4183 360.2Z" fill="url(#paint12_linear)" fill-opacity="0.3"/>
<path d="M101.209 354.832L113.916 317.268L124.665 311.128L132.926 313.13L140.907 309.92L146.458 323.099L148.048 308.05L152.569 312.747L141.982 341.564L132.175 360.795L137.123 340.386L133.559 333.863L140.892 324.837L138.624 312.968L130.688 322.363L136.975 319.771L125.976 341.8L132.264 339.208L126.963 361.075C126.68 362.241 126.698 352.264 126.742 347.13L121.029 362.209L126.638 315.722L117.878 362.474L123.399 320.596L120.321 314.191L112.09 333.289L120.734 320.979C118.486 334.496 113.987 361.119 113.975 359.47C113.964 357.821 114.432 344.146 114.667 337.515L106.907 354.67L111.266 336.69L101.209 354.832Z" fill="white" fill-opacity="0.3"/>
</g>
<path d="M77 554.318C82.8914 560.562 98.4102 570 114.073 570C139.506 570 154.307 554.899 154.307 537.91C154.307 499.141 105.595 503.497 105.595 484.186C105.595 476.635 112.636 473.441 119.964 473.441C127.293 473.441 135.196 477.506 140.8 483.169L150.714 467.778C148.559 465.455 136.633 455 119.82 455C101.715 455 84.3283 465.455 84.3283 485.057C84.3283 518.598 132.609 514.968 132.609 538.201C132.609 546.187 126.718 551.414 115.653 551.414C103.439 551.414 93.2373 544.735 87.6333 539.508L77 554.318Z" fill="url(#paint13_linear)"/>
<path d="M227.531 547.348C224.8 549.962 216.897 554.609 205.689 554.609C194.194 554.609 181.836 551.414 179.825 537.62H235.721V530.36C235.721 509.451 223.938 491.155 200.085 491.155C177.238 491.155 160.857 507.999 160.857 530.65C160.857 554.463 177.238 569.71 201.522 569.71C217.903 569.71 229.111 563.902 232.991 560.562L227.531 547.348ZM179.825 523.39C181.98 512.5 189.452 505.966 200.229 505.966C210.431 505.966 216.754 513.952 216.897 523.39H179.825Z" fill="url(#paint14_linear)"/>
<path d="M307.696 547.348C304.965 549.962 297.062 554.609 285.854 554.609C274.359 554.609 262.001 551.414 259.99 537.62H315.886V530.36C315.886 509.451 304.103 491.155 280.25 491.155C257.403 491.155 241.022 507.999 241.022 530.65C241.022 554.463 257.403 569.71 281.687 569.71C298.068 569.71 309.276 563.902 313.156 560.562L307.696 547.348ZM259.99 523.39C262.145 512.5 269.617 505.966 280.394 505.966C290.596 505.966 296.919 513.952 297.062 523.39H259.99Z" fill="url(#paint15_linear)"/>
<path d="M375.216 550.979C371.048 553.592 365.732 554.173 361.708 554.173C350.644 554.173 341.017 545.17 341.017 531.376C341.017 517.001 348.489 506.982 360.271 506.982C365.732 506.982 371.911 509.16 375.216 512.645V550.979ZM375.216 495.511C370.617 492.462 364.87 491.155 359.697 491.155C337.137 491.155 321.187 507.708 321.187 531.376C321.187 556.496 341.017 569.71 361.708 569.71C372.198 569.71 383.693 567.096 394.039 560.707V457.614H375.216V495.511Z" fill="url(#paint16_linear)"/>
<path d="M425.87 567.532V525.859H434.778C463.373 525.859 476.593 511.193 476.593 490.139C476.593 465.309 456.763 457.614 434.635 457.614H412.075V567.532H425.87ZM425.87 513.516V470.101H438.227C452.165 470.101 462.224 476.78 462.224 490.284C462.224 504.514 452.022 513.516 434.491 513.516H425.87Z" fill="url(#paint17_linear)"/>
<path d="M498.633 567.532V522.229C499.064 515.985 503.95 506.547 512.14 506.547C516.164 506.547 519.037 508.434 520.905 509.741L525.935 497.689C524.067 496.383 519.612 494.35 513.865 494.35C505.674 494.35 499.639 503.352 498.633 506.837V496.092H485.988V567.532H498.633Z" fill="url(#paint18_linear)"/>
<path d="M601.782 531.957C601.782 511.193 585.401 494.205 564.135 494.205C542.724 494.205 526.056 510.758 526.056 531.957C526.056 553.011 542.724 569.564 563.991 569.564C585.258 569.564 601.782 552.721 601.782 531.957ZM563.704 558.965C550.915 558.965 539.276 547.784 539.276 532.393C539.276 516.42 549.478 505.095 563.991 505.095C577.211 505.095 588.419 516.275 588.419 531.957C588.419 548.075 578.36 558.965 563.704 558.965Z" fill="url(#paint19_linear)"/>
<path d="M665.355 553.883C659.751 557.658 652.997 558.819 647.968 558.819C634.461 558.819 622.535 549.381 622.535 532.828C622.535 515.84 631.875 505.24 646.1 505.24C653.86 505.24 661.763 508.58 665.355 513.662V553.883ZM665.355 500.739C660.182 496.383 652.71 494.205 645.669 494.205C624.259 494.205 609.171 509.741 609.171 532.828C609.171 557.367 628.139 569.564 647.968 569.564C658.17 569.564 668.804 566.66 678 560.271V457.614H665.355V500.739Z" fill="url(#paint20_linear)"/>
<path d="M297.795 574.093C358.988 544.701 390.749 453.433 398.981 411.473H407.413V574.093H297.795Z" fill="white"/>
<path d="M523.654 574.093C462.461 544.701 430.7 453.433 422.469 411.473H414.036V574.093H523.654Z" fill="white"/>
<path fill-rule="evenodd" clip-rule="evenodd" d="M443.658 493.029C445.005 492.866 446.376 492.782 447.766 492.782C466.394 492.782 481.495 507.882 481.495 526.51C481.495 529.099 481.203 531.619 480.651 534.04C484.443 535.216 487.949 537.043 491.038 539.39C496.754 528.888 507.887 521.76 520.684 521.76C526.054 521.76 531.131 523.015 535.637 525.248C541.824 517.995 551.03 513.396 561.309 513.396C562.837 513.396 564.341 513.498 565.815 513.694V513.67C565.815 495.042 580.916 479.942 599.543 479.942C618.171 479.942 633.272 495.042 633.272 513.67C633.272 527.024 625.511 538.566 614.253 544.031C620.811 550.184 624.908 558.929 624.908 568.632C624.908 587.26 609.807 602.36 591.179 602.36C581.066 602.36 571.993 597.91 565.811 590.86C565.541 609.255 550.545 624.083 532.086 624.083C521.993 624.083 512.935 619.649 506.753 612.623C501.754 624.992 489.631 633.719 475.47 633.719C465.397 633.719 456.355 629.303 450.174 622.301C443.994 629.303 434.952 633.719 424.879 633.719C418.194 633.719 411.964 631.775 406.723 628.421C400.545 635.367 391.54 639.742 381.513 639.742C364.725 639.742 350.802 627.478 348.215 611.42C346.126 611.824 343.969 612.036 341.762 612.036C339.332 612.036 336.962 611.779 334.678 611.291C329.174 622.438 317.691 630.105 304.418 630.105C290.095 630.105 277.856 621.177 272.966 608.581C270.409 609.201 267.738 609.53 264.99 609.53C246.362 609.53 231.261 594.429 231.261 575.801C231.261 574.675 231.316 573.562 231.424 572.465C213.401 571.779 199 556.952 199 538.761C199 520.133 214.101 505.032 232.729 505.032C235.143 505.032 237.497 505.286 239.768 505.768C241.344 488.604 255.779 475.162 273.354 475.162C291.982 475.162 307.082 490.263 307.082 508.891C307.082 510.766 306.929 512.605 306.635 514.397C313.345 516.071 319.26 519.754 323.703 524.771C329.607 514.985 340.341 508.442 352.603 508.442C359.698 508.442 366.282 510.633 371.715 514.376C373.046 510.925 374.928 507.748 377.253 504.953C376.886 502.96 376.694 500.905 376.694 498.805C376.694 480.177 391.795 465.076 410.423 465.076C427.081 465.076 440.919 477.153 443.658 493.029Z" fill="url(#paint21_linear)"/>
<path fill-rule="evenodd" clip-rule="evenodd" d="M443.658 493.029C445.005 492.866 446.376 492.782 447.766 492.782C466.394 492.782 481.495 507.882 481.495 526.51C481.495 529.099 481.203 531.619 480.651 534.04C484.443 535.216 487.949 537.043 491.038 539.39C496.754 528.888 507.887 521.76 520.684 521.76C526.054 521.76 531.131 523.015 535.637 525.248C541.824 517.995 551.03 513.396 561.309 513.396C562.837 513.396 564.341 513.498 565.815 513.694V513.67C565.815 495.042 580.916 479.942 599.543 479.942C618.171 479.942 633.272 495.042 633.272 513.67C633.272 527.024 625.511 538.566 614.253 544.031C620.811 550.184 624.908 558.929 624.908 568.632C624.908 587.26 609.807 602.36 591.179 602.36C581.066 602.36 571.993 597.91 565.811 590.86C565.541 609.255 550.545 624.083 532.086 624.083C521.993 624.083 512.935 619.649 506.753 612.623C501.754 624.992 489.631 633.719 475.47 633.719C465.397 633.719 456.355 629.303 450.174 622.301C443.994 629.303 434.952 633.719 424.879 633.719C418.194 633.719 411.964 631.775 406.723 628.421C400.545 635.367 391.54 639.742 381.513 639.742C364.725 639.742 350.802 627.478 348.215 611.42C346.126 611.824 343.969 612.036 341.762 612.036C339.332 612.036 336.962 611.779 334.678 611.291C329.174 622.438 317.691 630.105 304.418 630.105C290.095 630.105 277.856 621.177 272.966 608.581C270.409 609.201 267.738 609.53 264.99 609.53C246.362 609.53 231.261 594.429 231.261 575.801C231.261 574.675 231.316 573.562 231.424 572.465C213.401 571.779 199 556.952 199 538.761C199 520.133 214.101 505.032 232.729 505.032C235.143 505.032 237.497 505.286 239.768 505.768C241.344 488.604 255.779 475.162 273.354 475.162C291.982 475.162 307.082 490.263 307.082 508.891C307.082 510.766 306.929 512.605 306.635 514.397C313.345 516.071 319.26 519.754 323.703 524.771C329.607 514.985 340.341 508.442 352.603 508.442C359.698 508.442 366.282 510.633 371.715 514.376C373.046 510.925 374.928 507.748 377.253 504.953C376.886 502.96 376.694 500.905 376.694 498.805C376.694 480.177 391.795 465.076 410.423 465.076C427.081 465.076 440.919 477.153 443.658 493.029Z" fill="url(#paint22_linear)"/>
<path fill-rule="evenodd" clip-rule="evenodd" d="M442.017 503.7C442.744 505.64 443.297 507.666 443.658 509.757C445.004 509.593 446.375 509.509 447.766 509.509C460.826 509.509 472.153 516.932 477.757 527.79C473.663 513.774 460.716 503.535 445.377 503.535C444.243 503.535 443.122 503.591 442.017 503.7ZM481.388 545.936C481.257 547.583 481.009 549.196 480.651 550.767C484.443 551.942 487.949 553.769 491.038 556.116C496.754 545.615 507.886 538.487 520.684 538.487C526.054 538.487 531.13 539.742 535.637 541.975C541.823 534.722 551.029 530.124 561.309 530.124C562.837 530.124 564.342 530.225 565.816 530.422V530.397C565.816 511.77 580.917 496.669 599.545 496.669C612.602 496.669 623.925 504.088 629.531 514.94C625.434 500.929 612.489 490.695 597.154 490.695C578.526 490.695 563.425 505.796 563.425 524.424V524.448C561.952 524.251 560.448 524.15 558.92 524.15C548.64 524.15 539.435 528.748 533.248 536.001C528.742 533.768 523.665 532.514 518.295 532.514C505.497 532.514 494.364 539.641 488.649 550.143C486.428 548.456 483.991 547.037 481.388 545.936ZM616.204 559.732C615.567 560.094 614.917 560.437 614.255 560.758C617.047 563.378 619.393 566.468 621.167 569.902C620.087 566.21 618.394 562.781 616.204 559.732ZM272.043 622.587C271.817 621.813 271.617 621.028 271.446 620.232C271.299 620.283 271.152 620.333 271.004 620.382C271.324 621.132 271.671 621.867 272.043 622.587ZM199.525 535.778C205.698 528.94 214.632 524.642 224.569 524.642C230.019 524.642 235.168 525.935 239.724 528.231C239.658 527.368 239.625 526.497 239.625 525.618C239.625 506.99 254.725 491.89 273.353 491.89C286.414 491.89 297.741 499.313 303.344 510.171C299.251 496.155 286.303 485.916 270.964 485.916C253.39 485.916 238.954 499.358 237.379 516.521C235.108 516.039 232.753 515.786 230.339 515.786C216.603 515.786 204.785 523.997 199.525 535.778ZM307.08 525.992C307.061 527.738 306.909 529.452 306.635 531.125C313.345 532.798 319.259 536.482 323.703 541.498C329.607 531.713 340.34 525.17 352.602 525.17C359.699 525.17 366.283 527.361 371.716 531.104C373.046 527.654 374.928 524.477 377.253 521.683C376.885 519.688 376.693 517.633 376.693 515.532C376.693 496.905 391.794 481.804 410.422 481.804C423.483 481.804 434.809 489.227 440.413 500.085C436.319 486.069 423.372 475.83 408.033 475.83C389.405 475.83 374.305 490.931 374.305 509.558C374.305 511.658 374.496 513.713 374.864 515.706C372.538 518.502 370.656 521.678 369.325 525.129C363.893 521.387 357.309 519.196 350.213 519.196C337.952 519.196 327.218 525.739 321.314 535.524C317.507 531.227 312.621 527.908 307.08 525.992Z" fill="white"/>
<circle cx="132" cy="1101" r="538" fill="#0029BD"/>
<circle cx="706" cy="1080" r="538" fill="#0029BD"/>
<path d="M362.028 679.714C294.02 667.501 312.831 632.214 326.499 599.5C402.47 608.248 365.659 636.076 474.146 593.573C481.401 589.928 491.696 585.78 505.499 581C493.866 585.749 483.469 589.921 474.146 593.573C400.203 630.728 642.133 615.653 704.064 685.166C758.47 746.233 688.729 805.119 647.058 826.928C547.381 848.738 372.629 868.584 471.039 773.495C594.052 654.633 447.037 694.981 362.028 679.714Z" fill="#03019F"/>
<path d="M372.999 642C374.999 652 391.399 670.3 440.999 663.5C417.499 672 364.999 673 372.999 642Z" fill="#1D15B8"/>
<path opacity="0.3" d="M501.999 647C437.999 644.5 427.666 621.667 443.999 606C428.999 663 556.999 623 571.999 664C583.999 696.8 547.499 728 534.999 739C579.999 686 588.337 650.373 501.999 647Z" fill="#1D15B8"/>
<g opacity="0.04">
<path fill-rule="evenodd" clip-rule="evenodd" d="M-159 733.184C-159 733.184 -153.681 730.506 -37.9828 679.23C77.716 627.955 217.397 667.729 245.805 756.42C174.164 703.878 72.0699 665.406 -8.99353 700.816C-90.057 736.226 -82.3444 733.518 -82.3444 733.518C-82.3444 733.518 -63.252 743.178 -8.41852 767.119C46.415 791.061 107.417 783.111 152.291 771.24C152.291 771.24 97.8562 737.599 54.7971 733.818C11.7381 730.037 -27.4455 733.638 -27.4455 733.638C-27.4455 733.638 32.363 706.543 89.9467 716.521C147.53 726.499 224.692 773.311 224.692 773.311L201.824 785.207C136.269 814.894 46.2024 825.991 -37.4055 788.452C-121.013 750.913 -159 733.184 -159 733.184Z" fill="black"/>
<path fill-rule="evenodd" clip-rule="evenodd" d="M-159 733.184C-159 733.184 -153.681 730.506 -37.9828 679.23C77.716 627.955 217.397 667.729 245.805 756.42C174.164 703.878 72.0699 665.406 -8.99353 700.816C-90.057 736.226 -82.3444 733.518 -82.3444 733.518C-82.3444 733.518 -63.252 743.178 -8.41852 767.119C46.415 791.061 107.417 783.111 152.291 771.24C152.291 771.24 97.8562 737.599 54.7971 733.818C11.7381 730.037 -27.4455 733.638 -27.4455 733.638C-27.4455 733.638 32.363 706.543 89.9467 716.521C147.53 726.499 224.692 773.311 224.692 773.311L201.824 785.207C136.269 814.894 46.2024 825.991 -37.4055 788.452C-121.013 750.913 -159 733.184 -159 733.184Z" fill="white"/>
</g>
<path d="M391.775 307.196C391.775 307.196 391.775 253.792 410.567 235C429.359 253.792 429.359 307.196 429.359 307.196V387.839H391.775V307.196Z" fill="black"/>
<path d="M391.775 307.196C391.775 307.196 391.775 253.792 410.567 235C429.359 253.792 429.359 307.196 429.359 307.196V387.839H391.775V307.196Z" fill="url(#paint23_linear)"/>
<mask id="mask3" mask-type="alpha" maskUnits="userSpaceOnUse" x="391" y="235" width="39" height="153">
<path d="M391.775 307.196C391.775 307.196 391.775 253.792 410.567 235C429.359 253.792 429.359 307.196 429.359 307.196V387.839H391.775V307.196Z" fill="black"/>
<path d="M391.775 307.196C391.775 307.196 391.775 253.792 410.567 235C429.359 253.792 429.359 307.196 429.359 307.196V387.839H391.775V307.196Z" fill="url(#paint24_linear)"/>
</mask>
<g mask="url(#mask3)">
<path d="M399.705 307.196C399.705 307.196 399.705 253.792 418.497 235C437.288 253.792 437.288 307.196 437.288 307.196V387.839H399.705V307.196Z" fill="black"/>
<path d="M399.705 307.196C399.705 307.196 399.705 253.792 418.497 235C437.288 253.792 437.288 307.196 437.288 307.196V387.839H399.705V307.196Z" fill="url(#paint25_linear)"/>
<path d="M399.705 307.196C399.705 307.196 399.705 253.792 418.497 235C437.288 253.792 437.288 307.196 437.288 307.196V387.839H399.705V307.196Z" fill="url(#paint26_linear)"/>
<path d="M411.246 307.196C411.246 307.196 411.246 253.792 430.038 235C448.829 253.792 448.829 307.196 448.829 307.196V387.839H411.246V307.196Z" fill="black"/>
<path d="M411.246 307.196C411.246 307.196 411.246 253.792 430.038 235C448.829 253.792 448.829 307.196 448.829 307.196V387.839H411.246V307.196Z" fill="url(#paint27_linear)"/>
<path d="M358.164 310.658C358.164 310.658 358.164 257.254 376.956 238.462C395.747 257.254 395.747 310.658 395.747 310.658V391.301H358.164V310.658Z" fill="url(#paint28_linear)" fill-opacity="0.3"/>
<path d="M358.164 310.658C358.164 310.658 358.164 257.254 376.956 238.462C395.747 257.254 395.747 310.658 395.747 310.658V391.301H358.164V310.658Z" fill="url(#paint29_linear)"/>
<path d="M406.182 387.839V344.683L410.566 340.233L414.951 344.683V387.839H406.182Z" fill="#9F2828"/>
<path d="M411.193 264.127V387.839" stroke="white" stroke-dasharray="2 2"/>
<rect x="375.488" y="219.967" width="75.7929" height="43.8471" fill="url(#paint30_linear)"/>
</g>
<circle cx="410.566" cy="305.782" r="13.7805" fill="white"/>
<circle cx="410.568" cy="305.782" r="10.775" fill="black"/>
<circle cx="410.568" cy="305.782" r="10.775" fill="url(#paint31_linear)"/>
<circle cx="410.568" cy="305.782" r="10.775" stroke="black"/>
<path d="M413.699 298.891C415.683 299.935 419.337 303.151 418.084 307.661" stroke="white" stroke-width="4" stroke-linecap="round"/>
<rect x="394.908" y="387.839" width="31.3194" height="6.26388" fill="#9F2828"/>
<rect x="391.775" y="382.201" width="37.5833" height="1.87916" fill="#9F2828"/>
<rect x="413.699" y="394.102" width="10.0222" height="13.1541" fill="#FEB000"/>
<mask id="mask4" mask-type="alpha" maskUnits="userSpaceOnUse" x="413" y="394" width="11" height="14">
<rect x="413.699" y="394.102" width="10.0222" height="13.1541" fill="#FEB000"/>
</mask>
<g mask="url(#mask4)">
<rect x="415.863" y="394.102" width="10.0222" height="13.1541" fill="black"/>
<rect x="415.863" y="394.102" width="10.0222" height="13.1541" fill="url(#paint32_linear)"/>
</g>
<rect x="398.553" y="394.102" width="10.0222" height="13.1541" fill="#FEB000"/>
<mask id="mask5" mask-type="alpha" maskUnits="userSpaceOnUse" x="398" y="394" width="11" height="14">
<rect x="398.553" y="394.102" width="10.0222" height="13.1541" fill="#FEB000"/>
</mask>
<g mask="url(#mask5)">
<rect x="400.715" y="394.102" width="10.0222" height="13.1541" fill="black"/>
<rect x="400.715" y="394.102" width="10.0222" height="13.1541" fill="url(#paint33_linear)"/>
</g>
<path d="M359.83 387.839L392.402 340.233V387.839H379.374H359.83Z" fill="black"/>
<path d="M359.83 387.839L392.402 340.233V387.839H379.374H359.83Z" fill="url(#paint34_linear)"/>
<path d="M461.93 387.839L429.358 340.233V387.839H442.386H461.93Z" fill="black"/>
<path d="M461.93 387.839L429.358 340.233V387.839H442.386H461.93Z" fill="url(#paint35_linear)"/>
<path fill-rule="evenodd" clip-rule="evenodd" d="M56 210.261L136 210.261C136 198.61 128.872 189.164 120.078 189.164C114.831 189.164 110.177 192.527 107.276 197.716C104.67 190.772 99.2614 186 93.0114 186C87.1201 186 81.9761 190.24 79.2225 196.542C76.9392 194.865 74.3123 193.911 71.5171 193.911C63.9556 193.911 57.6252 200.895 56 210.261Z" fill="url(#paint36_linear)"/>
<path fill-rule="evenodd" clip-rule="evenodd" d="M108 76.2607L188 76.2607C188 64.6095 180.872 55.1644 172.078 55.1644C166.831 55.1644 162.177 58.5275 159.276 63.7155C156.67 56.7717 151.261 52 145.011 52C139.12 52 133.976 56.2396 131.222 62.5418C128.939 60.8655 126.312 59.9111 123.517 59.9111C115.956 59.9111 109.625 66.8953 108 76.2607Z" fill="url(#paint37_linear)"/>
<path fill-rule="evenodd" clip-rule="evenodd" d="M295 124.261L421.165 124.261C421.165 105.886 409.923 90.9905 396.056 90.9905C387.781 90.9905 380.441 96.2943 375.866 104.476C371.756 93.5252 363.226 86 353.369 86C344.078 86 335.966 92.6861 331.623 102.625C328.023 99.9815 323.88 98.4763 319.471 98.4763C307.546 98.4763 297.563 109.491 295 124.261Z" fill="url(#paint38_linear)"/>
<path fill-rule="evenodd" clip-rule="evenodd" d="M679 159.441L753 159.441C753 148.664 746.406 139.927 738.272 139.927C733.419 139.927 729.114 143.038 726.431 147.837C724.02 141.414 719.017 137 713.236 137C707.786 137 703.028 140.922 700.481 146.751C698.369 145.201 695.939 144.318 693.353 144.318C686.359 144.318 680.503 150.778 679 159.441Z" fill="url(#paint39_linear)"/>
<path fill-rule="evenodd" clip-rule="evenodd" d="M724 86.4411L798 86.4412C798 75.6638 791.406 66.9271 783.272 66.9271C778.419 66.9271 774.114 70.0379 771.431 74.8369C769.02 68.4138 764.017 64 758.236 64C752.786 64 748.028 67.9216 745.481 73.7511C743.369 72.2006 740.939 71.3178 738.353 71.3178C731.359 71.3178 725.503 77.7782 724 86.4411Z" fill="url(#paint40_linear)"/>
<path d="M186.296 149.532L230.255 190.426L227.426 193.255L186.296 149.532Z" fill="url(#paint41_linear)"/>
<path d="M549.296 214.532L593.255 255.426L590.426 258.255L549.296 214.532Z" fill="url(#paint42_linear)"/>
<path d="M533.507 48.7474L594.34 105.341L590.426 109.255L533.507 48.7474Z" fill="url(#paint43_linear)"/>
</g>
<rect x="416" y="415" width="3" height="54" fill="url(#paint44_linear)"/>
<rect x="402" y="415" width="3" height="54" fill="url(#paint45_linear)"/>
<circle cx="42" cy="38" r="2" fill="#BA59CA" fill-opacity="0.54"/>
<circle cx="60" cy="76" r="2" fill="#BA59CA" fill-opacity="0.54"/>
<circle cx="369.5" cy="222.5" r="1.5" fill="#BA59CA" fill-opacity="0.54"/>
<circle cx="336.5" cy="261.5" r="1.5" fill="#BA59CA" fill-opacity="0.54"/>
<circle cx="87" cy="112" r="2" fill="#FCFF5C" fill-opacity="0.54"/>
<circle cx="25" cy="241" r="2" fill="#FCFF5C" fill-opacity="0.54"/>
<circle cx="151" cy="108" r="2" fill="#FCFF5C" fill-opacity="0.54"/>
<circle cx="170" cy="160" r="1" fill="#FCFF5C" fill-opacity="0.54"/>
<circle cx="193" cy="107" r="1" fill="#FCFF5C" fill-opacity="0.54"/>
<circle cx="181" cy="208" r="1" fill="#FCFF5C" fill-opacity="0.54"/>
<circle cx="235" cy="149" r="1" fill="#FCFF5C" fill-opacity="0.54"/>
<circle cx="289" cy="90" r="1" fill="#FCFF5C" fill-opacity="0.54"/>
<circle cx="507" cy="126" r="1" fill="#FCFF5C" fill-opacity="0.54"/>
<circle cx="287" cy="151" r="1" fill="#336D9B"/>
<circle cx="412" cy="178" r="1" fill="#336D9B"/>
<circle cx="474" cy="298" r="1" fill="#336D9B"/>
<circle cx="501" cy="224" r="1" fill="#336D9B"/>
<circle cx="463" cy="254" r="1" fill="#336D9B"/>
<circle cx="762" cy="192" r="1" fill="#336D9B"/>
<circle cx="771" cy="116" r="1" fill="#336D9B"/>
<circle cx="839" cy="18" r="1" fill="#336D9B"/>
<circle cx="841" cy="223" r="1" fill="#336D9B"/>
<circle cx="648" cy="189" r="1" fill="#336D9B"/>
<circle cx="621" cy="304" r="1" fill="#336D9B"/>
<circle cx="285" cy="212" r="1" fill="#7C54AA"/>
<circle cx="450" cy="194" r="1" fill="#7C54AA"/>
<circle cx="448" cy="115" r="1" fill="#7C54AA"/>
<circle cx="469" cy="57" r="1" fill="#7C54AA"/>
<circle cx="647" cy="78" r="1" fill="#7C54AA"/>
<circle cx="608" cy="176" r="1" fill="#7C54AA"/>
<circle cx="634" cy="249" r="1" fill="#7C54AA"/>
<circle cx="655" cy="130" r="1" fill="#7C54AA"/>
<circle cx="715" cy="38" r="1" fill="#7C54AA"/>
<circle cx="643" cy="16" r="1" fill="#7C54AA"/>
<circle cx="716" cy="243" r="1" fill="#7C54AA"/>
<circle cx="401" cy="55" r="1" fill="#7C54AA"/>
<circle cx="509" cy="25" r="1" fill="#7C54AA"/>
<circle cx="331" cy="206" r="1" fill="#FCFF5C" fill-opacity="0.54"/>
<circle cx="291" cy="273" r="1" fill="#FCFF5C" fill-opacity="0.54"/>
<circle cx="543" cy="190" r="1" fill="#FCFF5C" fill-opacity="0.54"/>
<circle cx="273" cy="325" r="1" fill="#FCA802"/>
<circle cx="279" cy="395" r="1" fill="#FCFF5C" fill-opacity="0.54"/>
<circle cx="518" cy="320" r="1" fill="#FCFF5C" fill-opacity="0.54"/>
<circle cx="588" cy="309" r="1" fill="#FCFF5C" fill-opacity="0.54"/>
<circle cx="533" cy="269" r="1" fill="#FCFF5C" fill-opacity="0.54"/>
<circle cx="567" cy="143" r="1" fill="#FCFF5C" fill-opacity="0.54"/>
<circle cx="595" cy="31" r="1" fill="#FCFF5C" fill-opacity="0.54"/>
<circle cx="331" cy="416" r="1" fill="#FCFF5C" fill-opacity="0.54"/>
<circle cx="383" cy="437" r="1" fill="#FCFF5C" fill-opacity="0.54"/>
<circle cx="343" cy="31" r="1" fill="#FCFF5C" fill-opacity="0.54"/>
<circle cx="207" cy="67" r="1" fill="#FCFF5C" fill-opacity="0.54"/>
<circle cx="157" cy="23" r="1" fill="#FCFF5C" fill-opacity="0.54"/>
<circle cx="38" cy="158" r="2" fill="#FCFF5C" fill-opacity="0.54"/>
<circle cx="207" cy="31" r="2" fill="#3B83AF"/>
<circle cx="91" cy="38" r="2" fill="white" fill-opacity="0.54"/>
<circle cx="118" cy="162" r="2" fill="white" fill-opacity="0.54"/>
<circle cx="116" cy="234" r="2" fill="white" fill-opacity="0.54"/>
<circle cx="381" cy="146" r="2" fill="white" fill-opacity="0.54"/>
<circle cx="496" cy="379" r="2" fill="white" fill-opacity="0.54"/>
<circle cx="32.5" cy="101.5" r="2.5" fill="#BA59CA" fill-opacity="0.54"/>
<circle cx="241.5" cy="259.5" r="2.5" fill="#BA59CA" fill-opacity="0.54"/>
<circle cx="325.5" cy="317.5" r="1.5" fill="#BA59CA" fill-opacity="0.54"/>
<circle cx="310.5" cy="365.5" r="1.5" fill="#BA59CA" fill-opacity="0.54"/>
<circle cx="180.5" cy="254.5" r="2.5" fill="#BA59CA" fill-opacity="0.54"/>
<circle cx="64.5" cy="291.5" r="2.5" fill="#BA59CA" fill-opacity="0.54"/>
<defs>
<linearGradient id="paint0_linear" x1="570" y1="613" x2="558.119" y2="-4.44714" gradientUnits="userSpaceOnUse">
<stop offset="0.130208" stop-color="#FFB800"/>
<stop offset="0.234375" stop-color="#EB5500"/>
<stop offset="0.291667" stop-color="#832C19"/>
<stop offset="0.859375" stop-color="#3F00A6"/>
</linearGradient>
<linearGradient id="paint1_linear" x1="597" y1="571" x2="561.205" y2="105.602" gradientUnits="userSpaceOnUse">
<stop offset="0.130208" stop-color="#FFB800"/>
<stop offset="0.197062" stop-color="#EB5500"/>
<stop offset="0.448262" stop-color="#832C19" stop-opacity="0"/>
<stop offset="1" stop-color="#080016" stop-opacity="0"/>
</linearGradient>
<linearGradient id="paint2_linear" x1="437" y1="0" x2="437" y2="587" gradientUnits="userSpaceOnUse">
<stop stop-color="#0B033A"/>
<stop offset="0.411458" stop-color="#0B033A"/>
<stop offset="0.916667" stop-color="#0B033A" stop-opacity="0"/>
</linearGradient>
<linearGradient id="paint3_linear" x1="693" y1="280" x2="756.784" y2="394.783" gradientUnits="userSpaceOnUse">
<stop offset="0.109375" stop-color="#FFB800"/>
<stop offset="0.510417" stop-color="#EB5500"/>
<stop offset="1" stop-color="#6712D2"/>
</linearGradient>
<linearGradient id="paint4_linear" x1="693" y1="280" x2="858.809" y2="457.642" gradientUnits="userSpaceOnUse">
<stop offset="0.109375" stop-color="#FFB800"/>
<stop offset="0.510417" stop-color="#EB5500"/>
<stop offset="1" stop-color="#6712D2"/>
</linearGradient>
<linearGradient id="paint5_linear" x1="693" y1="300.5" x2="824.791" y2="499.733" gradientUnits="userSpaceOnUse">
<stop offset="0.109375" stop-color="#FFB800"/>
<stop offset="0.262213" stop-color="#EB5500"/>
<stop offset="1" stop-color="#6712D2"/>
</linearGradient>
<linearGradient id="paint6_linear" x1="618.785" y1="336.5" x2="750.576" y2="535.733" gradientUnits="userSpaceOnUse">
<stop offset="0.109375" stop-color="#FFB800"/>
<stop offset="0.262213" stop-color="#EB5500"/>
<stop offset="1" stop-color="#6712D2"/>
</linearGradient>
<linearGradient id="paint7_linear" x1="559.785" y1="355.5" x2="691.576" y2="554.733" gradientUnits="userSpaceOnUse">
<stop offset="0.109375" stop-color="#FFB800"/>
<stop offset="0.262213" stop-color="#EB5500"/>
<stop offset="1" stop-color="#6712D2"/>
</linearGradient>
<linearGradient id="paint8_linear" x1="107.672" y1="309.066" x2="142.619" y2="435.646" gradientUnits="userSpaceOnUse">
<stop offset="0.109375" stop-color="#FFB800"/>
<stop offset="0.510417" stop-color="#EB5500"/>
<stop offset="1" stop-color="#6712D2"/>
</linearGradient>
<linearGradient id="paint9_linear" x1="107.672" y1="309.066" x2="226.964" y2="520.772" gradientUnits="userSpaceOnUse">
<stop offset="0.109375" stop-color="#FFB800"/>
<stop offset="0.510417" stop-color="#EB5500"/>
<stop offset="1" stop-color="#6712D2"/>
</linearGradient>
<linearGradient id="paint10_linear" x1="102.843" y1="328.989" x2="183.987" y2="553.663" gradientUnits="userSpaceOnUse">
<stop offset="0.109375" stop-color="#FFB800"/>
<stop offset="0.262213" stop-color="#EB5500"/>
<stop offset="1" stop-color="#6712D2"/>
</linearGradient>
<linearGradient id="paint11_linear" x1="22.2359" y1="346.492" x2="103.38" y2="571.166" gradientUnits="userSpaceOnUse">
<stop offset="0.109375" stop-color="#FFB800"/>
<stop offset="0.262213" stop-color="#EB5500"/>
<stop offset="1" stop-color="#6712D2"/>
</linearGradient>
<linearGradient id="paint12_linear" x1="-39.5805" y1="351.057" x2="41.5632" y2="575.731" gradientUnits="userSpaceOnUse">
<stop offset="0.109375" stop-color="#FFB800"/>
<stop offset="0.262213" stop-color="#EB5500"/>
<stop offset="1" stop-color="#6712D2"/>
</linearGradient>
<linearGradient id="paint13_linear" x1="266" y1="463" x2="259.068" y2="553.169" gradientUnits="userSpaceOnUse">
<stop stop-color="white" stop-opacity="0.29"/>
<stop offset="1" stop-color="white" stop-opacity="0"/>
</linearGradient>
<linearGradient id="paint14_linear" x1="266" y1="463" x2="259.068" y2="553.169" gradientUnits="userSpaceOnUse">
<stop stop-color="white" stop-opacity="0.29"/>
<stop offset="1" stop-color="white" stop-opacity="0"/>
</linearGradient>
<linearGradient id="paint15_linear" x1="266" y1="463" x2="259.068" y2="553.169" gradientUnits="userSpaceOnUse">
<stop stop-color="white" stop-opacity="0.29"/>
<stop offset="1" stop-color="white" stop-opacity="0"/>
</linearGradient>
<linearGradient id="paint16_linear" x1="266" y1="463" x2="259.068" y2="553.169" gradientUnits="userSpaceOnUse">
<stop stop-color="white" stop-opacity="0.29"/>
<stop offset="1" stop-color="white" stop-opacity="0"/>
</linearGradient>
<linearGradient id="paint17_linear" x1="266" y1="463" x2="259.068" y2="553.169" gradientUnits="userSpaceOnUse">
<stop stop-color="white" stop-opacity="0.29"/>
<stop offset="1" stop-color="white" stop-opacity="0"/>
</linearGradient>
<linearGradient id="paint18_linear" x1="266" y1="463" x2="259.068" y2="553.169" gradientUnits="userSpaceOnUse">
<stop stop-color="white" stop-opacity="0.29"/>
<stop offset="1" stop-color="white" stop-opacity="0"/>
</linearGradient>
<linearGradient id="paint19_linear" x1="266" y1="463" x2="259.068" y2="553.169" gradientUnits="userSpaceOnUse">
<stop stop-color="white" stop-opacity="0.29"/>
<stop offset="1" stop-color="white" stop-opacity="0"/>
</linearGradient>
<linearGradient id="paint20_linear" x1="266" y1="463" x2="259.068" y2="553.169" gradientUnits="userSpaceOnUse">
<stop stop-color="white" stop-opacity="0.29"/>
<stop offset="1" stop-color="white" stop-opacity="0"/>
</linearGradient>
<linearGradient id="paint21_linear" x1="416.136" y1="465.076" x2="416.136" y2="639.742" gradientUnits="userSpaceOnUse">
<stop stop-color="white"/>
<stop offset="1" stop-color="white" stop-opacity="0"/>
</linearGradient>
<linearGradient id="paint22_linear" x1="416.136" y1="465.076" x2="416.136" y2="639.742" gradientUnits="userSpaceOnUse">
<stop stop-color="white"/>
<stop offset="1" stop-color="#2EAEFF"/>
</linearGradient>
<linearGradient id="paint23_linear" x1="391.775" y1="235" x2="460.33" y2="252.582" gradientUnits="userSpaceOnUse">
<stop offset="0.109375" stop-color="#FFB800"/>
<stop offset="0.510417" stop-color="#EB5500"/>
<stop offset="1" stop-color="#6712D2"/>
</linearGradient>
<linearGradient id="paint24_linear" x1="391.775" y1="235" x2="460.33" y2="252.582" gradientUnits="userSpaceOnUse">
<stop offset="0.109375" stop-color="#FFB800"/>
<stop offset="0.510417" stop-color="#EB5500"/>
<stop offset="1" stop-color="#6712D2"/>
</linearGradient>
<linearGradient id="paint25_linear" x1="399.705" y1="235" x2="468.26" y2="252.582" gradientUnits="userSpaceOnUse">
<stop offset="0.109375" stop-color="#FFB800"/>
<stop offset="0.510417" stop-color="#EB5500"/>
<stop offset="1" stop-color="#6712D2"/>
</linearGradient>
<linearGradient id="paint26_linear" x1="418.497" y1="235" x2="418.497" y2="387.839" gradientUnits="userSpaceOnUse">
<stop stop-color="white"/>
<stop offset="1" stop-color="white" stop-opacity="0"/>
</linearGradient>
<linearGradient id="paint27_linear" x1="411.246" y1="235" x2="479.801" y2="252.582" gradientUnits="userSpaceOnUse">
<stop offset="0.109375" stop-color="#FFB800"/>
<stop offset="0.510417" stop-color="#EB5500"/>
<stop offset="1" stop-color="#6712D2"/>
</linearGradient>
<linearGradient id="paint28_linear" x1="358.164" y1="238.462" x2="426.719" y2="256.044" gradientUnits="userSpaceOnUse">
<stop offset="0.109375" stop-color="#FFB800"/>
<stop offset="0.510417" stop-color="#EB5500"/>
<stop offset="1" stop-color="#6712D2"/>
</linearGradient>
<linearGradient id="paint29_linear" x1="376.956" y1="238.462" x2="376.956" y2="391.301" gradientUnits="userSpaceOnUse">
<stop stop-color="white"/>
<stop offset="1" stop-color="white" stop-opacity="0"/>
</linearGradient>
<linearGradient id="paint30_linear" x1="403.168" y1="241.924" x2="404.31" y2="264.464" gradientUnits="userSpaceOnUse">
<stop stop-color="#EB5500"/>
<stop offset="0.398882" stop-color="#FFB800"/>
<stop offset="1" stop-color="#6712D2"/>
</linearGradient>
<linearGradient id="paint31_linear" x1="399.293" y1="294.507" x2="420.291" y2="316.406" gradientUnits="userSpaceOnUse">
<stop offset="0.109375" stop-color="#FFB800"/>
<stop offset="0.510417" stop-color="#EB5500"/>
<stop offset="1" stop-color="#6712D2"/>
</linearGradient>
<linearGradient id="paint32_linear" x1="415.863" y1="394.102" x2="427.806" y2="403.592" gradientUnits="userSpaceOnUse">
<stop offset="0.109375" stop-color="#FFB800"/>
<stop offset="0.510417" stop-color="#EB5500"/>
<stop offset="1" stop-color="#6712D2"/>
</linearGradient>
<linearGradient id="paint33_linear" x1="400.715" y1="394.102" x2="412.657" y2="403.592" gradientUnits="userSpaceOnUse">
<stop offset="0.109375" stop-color="#FFB800"/>
<stop offset="0.510417" stop-color="#EB5500"/>
<stop offset="1" stop-color="#6712D2"/>
</linearGradient>
<linearGradient id="paint34_linear" x1="359.83" y1="340.233" x2="401.787" y2="370.174" gradientUnits="userSpaceOnUse">
<stop offset="0.109375" stop-color="#FFB800"/>
<stop offset="0.510417" stop-color="#EB5500"/>
<stop offset="1" stop-color="#6712D2"/>
</linearGradient>
<linearGradient id="paint35_linear" x1="461.93" y1="340.233" x2="419.973" y2="370.174" gradientUnits="userSpaceOnUse">
<stop offset="0.109375" stop-color="#FFB800"/>
<stop offset="0.510417" stop-color="#EB5500"/>
<stop offset="1" stop-color="#6712D2"/>
</linearGradient>
<linearGradient id="paint36_linear" x1="75.0227" y1="190.439" x2="80.7295" y2="213.9" gradientUnits="userSpaceOnUse">
<stop stop-color="#56CCF2"/>
<stop offset="1" stop-color="#56CCF2" stop-opacity="0"/>
</linearGradient>
<linearGradient id="paint37_linear" x1="127.023" y1="56.4386" x2="132.729" y2="79.8999" gradientUnits="userSpaceOnUse">
<stop stop-color="#56CCF2"/>
<stop offset="1" stop-color="#56CCF2" stop-opacity="0"/>
</linearGradient>
<linearGradient id="paint38_linear" x1="325" y1="93" x2="334" y2="130" gradientUnits="userSpaceOnUse">
<stop stop-color="#F256E2"/>
<stop offset="1" stop-color="#56CCF2" stop-opacity="0"/>
</linearGradient>
<linearGradient id="paint39_linear" x1="696.596" y1="141.106" x2="701.875" y2="162.807" gradientUnits="userSpaceOnUse">
<stop stop-color="#56CCF2"/>
<stop offset="1" stop-color="#56CCF2" stop-opacity="0"/>
</linearGradient>
<linearGradient id="paint40_linear" x1="741.596" y1="68.1057" x2="746.875" y2="89.8075" gradientUnits="userSpaceOnUse">
<stop stop-color="#56CCF2"/>
<stop offset="1" stop-color="#56CCF2" stop-opacity="0"/>
</linearGradient>
<linearGradient id="paint41_linear" x1="197.399" y1="158.606" x2="194.665" y2="161.649" gradientUnits="userSpaceOnUse">
<stop stop-color="#56CCF2"/>
<stop offset="1" stop-color="#56CCF2" stop-opacity="0"/>
</linearGradient>
<linearGradient id="paint42_linear" x1="560.399" y1="223.606" x2="557.665" y2="226.649" gradientUnits="userSpaceOnUse">
<stop stop-color="#56CCF2"/>
<stop offset="1" stop-color="#56CCF2" stop-opacity="0"/>
</linearGradient>
<linearGradient id="paint43_linear" x1="548.872" y1="61.3044" x2="545.088" y2="65.516" gradientUnits="userSpaceOnUse">
<stop stop-color="#F256E2"/>
<stop offset="1" stop-color="#56CCF2" stop-opacity="0"/>
</linearGradient>
<linearGradient id="paint44_linear" x1="417.5" y1="415" x2="417.5" y2="469" gradientUnits="userSpaceOnUse">
<stop stop-color="#C1E7FF"/>
<stop offset="1" stop-color="white" stop-opacity="0"/>
</linearGradient>
<linearGradient id="paint45_linear" x1="403.5" y1="415" x2="403.5" y2="469" gradientUnits="userSpaceOnUse">
<stop stop-color="#C1E7FF"/>
<stop offset="1" stop-color="white" stop-opacity="0"/>
</linearGradient>
</defs>
</svg>
